<svg xmlns="http://www.w3.org/2000/svg" fill="none" viewBox="7 39 182 161">
<g clip-path="url(#clip0_246_68)">
<path d="M59.3033 162.652C59.3937 171.527 59.8071 186.414 59.8657 187.605C59.8657 187.605 59.8691 187.725 59.8824 187.94C59.931 188.956 59.9745 189.736 60.2875 191.065C60.6541 192.617 61.3587 193.664 62.6995 195.495C63.672 196.824 65.4763 198.333 67.7577 198.353H67.8314C68.4172 198.353 69.0265 198.28 69.6927 198.13C69.9404 198.075 70.1379 197.889 70.2082 197.648C70.2802 197.405 70.2132 197.144 70.0358 196.966C69.4784 196.4 68.9863 195.783 68.5762 195.131C67.7192 193.739 67.2154 192.135 67.125 190.496C67.1083 190.154 67.1167 189.779 67.125 189.417L67.13 189.244L67.3761 185.912C67.515 183.869 67.6941 181.794 67.8682 179.788C67.9502 178.84 68.0322 177.894 68.1109 176.945L68.1143 176.905C68.3955 173.988 68.685 170.97 69.0516 168.014C69.07 167.868 69.1955 167.758 69.3445 167.758H69.3462C69.5069 167.758 69.6374 167.891 69.6374 168.051C69.619 171.045 69.5186 174.087 69.4198 177.032C69.3763 177.967 69.3345 178.913 69.2943 179.86C69.2073 181.873 69.1185 183.955 68.993 185.998L68.8039 189.685C68.8039 189.924 68.8039 190.154 68.8189 190.392C68.9378 191.789 69.3629 193.115 70.0458 194.243C70.779 195.412 71.7732 196.397 72.9265 197.099C74.0697 197.789 75.4054 198.217 76.7896 198.341C76.803 198.341 76.8147 198.343 76.8264 198.345C78.748 198.45 80.6812 197.879 82.268 196.733C82.5793 196.508 82.6496 196.076 82.4253 195.765C82.1508 195.384 81.9182 195.021 81.7173 194.66C80.9457 193.268 80.5323 191.661 80.5206 190.012C80.5038 189.734 80.5272 189.47 80.554 189.189C80.5674 189.041 80.5808 188.891 80.5892 188.745C80.6143 188.532 80.6511 188.309 80.6879 188.086C80.7097 187.954 80.7314 187.823 80.7515 187.687L81.0997 185.496C81.416 183.43 81.7776 181.337 82.1257 179.311C82.2747 178.446 82.4237 177.581 82.5693 176.716C83.1585 173.484 83.6556 170.782 84.2465 167.992C84.2766 167.848 84.4138 167.744 84.5595 167.761C84.7201 167.774 84.8407 167.917 84.8256 168.077C84.5544 171.123 84.1929 174.192 83.8749 176.9C83.7611 177.76 83.6506 178.629 83.5401 179.496C83.2807 181.53 83.0129 183.631 82.7116 185.69L82.4019 187.895C82.3852 188.024 82.3668 188.151 82.3484 188.277C82.3115 188.532 82.2747 188.785 82.2546 189.011C82.2529 189.029 82.2513 189.051 82.2513 189.069C82.2513 189.171 82.2429 189.269 82.2345 189.367C82.2195 189.568 82.2011 189.796 82.2278 190.049C82.2764 191.416 82.6279 192.75 83.2438 193.86C83.9067 195.061 84.8323 196.091 85.9219 196.836C87.0066 197.583 88.3021 198.09 89.6646 198.3C93.4591 198.746 97.011 196.706 98.5241 193.225C98.591 193.07 98.5994 192.895 98.5475 192.734C98.1876 191.636 98.0253 190.451 98.0755 189.309C98.0738 188.974 98.1224 188.642 98.1726 188.289L98.2044 188.064C98.2261 187.876 98.2596 187.745 98.2964 187.594L98.9894 184.879C99.6974 182.147 100.492 179.286 101.353 176.375C102.108 173.83 103 170.872 104.053 167.982C104.101 167.849 104.237 167.764 104.381 167.793C104.486 167.809 104.545 167.874 104.573 167.912C104.6 167.949 104.64 168.027 104.623 168.132C104.11 171.16 103.425 174.154 102.824 176.724C102.136 179.652 101.415 182.518 100.678 185.243L99.9502 187.89C99.8882 188.103 99.8263 188.314 99.8096 188.508C99.8029 188.55 99.7878 188.628 99.7744 188.708C99.7359 188.923 99.6941 189.164 99.6891 189.44C99.6204 190.463 99.7142 191.471 99.9719 192.399C99.9887 192.461 100.015 192.519 100.049 192.574C100.059 192.592 100.069 192.611 100.079 192.627C100.102 192.664 100.113 192.682 100.123 192.7C100.139 192.732 100.153 192.755 100.163 192.782C100.168 192.795 100.179 192.819 100.19 192.839C101.232 195.618 103.589 197.623 106.5 198.205C109.635 198.831 112.942 197.606 114.924 195.078C115.272 194.602 115.582 194.096 115.856 193.559C115.87 193.534 115.882 193.506 115.89 193.479C115.928 193.374 115.972 193.273 116.015 193.171C116.106 192.957 116.208 192.714 116.273 192.439L116.574 191.358L116.933 190.041C117.236 188.928 117.547 187.776 117.875 186.652C118.663 183.874 119.551 180.893 120.67 177.265C121.594 174.221 122.614 171.09 123.703 167.957C123.752 167.818 123.899 167.736 124.041 167.768C124.145 167.789 124.202 167.856 124.225 167.894C124.251 167.932 124.289 168.011 124.266 168.114C123.568 171.354 122.814 174.557 122.026 177.629C121.1 181.304 120.312 184.308 119.542 187.089C119.243 188.204 118.918 189.329 118.603 190.416L118.034 192.374L117.823 193.018C117.738 193.309 117.612 193.584 117.478 193.875C117.423 194 117.366 194.123 117.313 194.246C117.187 194.479 117.055 194.707 116.918 194.933C116.752 195.201 116.79 195.547 117.01 195.775C118.054 196.859 119.37 197.649 120.813 198.057C123.837 198.879 127.171 197.931 129.317 195.645C129.503 195.474 129.677 195.247 129.831 195.048C129.895 194.966 129.957 194.883 130.024 194.805C130.045 194.78 130.064 194.753 130.08 194.725C130.137 194.632 130.198 194.54 130.258 194.451C130.395 194.246 130.534 194.035 130.653 193.79C130.819 193.509 130.936 193.221 131.051 192.943L131.125 192.767L133.324 186.812L136.915 177.338C138.153 174.146 139.372 171.02 140.644 167.927C140.701 167.791 140.858 167.718 141.002 167.759C141.156 167.806 141.243 167.969 141.196 168.122C140.215 171.293 139.206 174.359 138.081 177.752L134.822 187.339L132.685 193.411C132.526 193.818 132.375 194.203 132.178 194.559C131.96 194.989 131.709 195.399 131.418 195.8C131.19 196.109 131.261 196.545 131.572 196.771C132.261 197.27 132.993 197.654 133.749 197.917C133.965 197.992 134.185 198.049 134.402 198.107C137.286 198.819 140.487 197.929 142.562 195.84C143.161 195.217 143.618 194.615 143.973 193.988C144.06 193.855 144.119 193.727 144.172 193.612C144.194 193.562 144.216 193.514 144.243 193.466L144.294 193.359C144.366 193.215 144.438 193.065 144.517 192.872L147.075 186.9L151.264 177.373L153.398 172.629L155.583 167.906C155.646 167.769 155.807 167.703 155.951 167.754C156.102 167.811 156.179 167.979 156.122 168.129L154.282 173.001L152.394 177.845L148.534 187.507L146.065 193.519C145.992 193.709 145.89 193.928 145.789 194.143C145.754 194.213 145.716 194.296 145.677 194.381C145.615 194.517 145.558 194.645 145.493 194.748C145.064 195.548 144.505 196.287 143.762 197.049L143.699 197.107C143.513 197.288 143.443 197.558 143.52 197.806C143.595 198.054 143.804 198.24 144.06 198.287C144.572 198.381 145.08 198.43 145.578 198.43C148.65 198.43 151.412 196.641 153.315 193.361L153.792 192.547C157.134 186.863 161.876 178.444 166.801 168.553C165.852 170.745 164.703 173.374 163.209 176.707C159.456 185.073 157.707 189.006 155.158 193.341L155.129 193.389L154.682 194.153C154.667 194.178 154.649 194.208 154.63 194.238L154.627 194.244C154.535 194.401 154.438 194.559 154.339 194.712C154.292 194.785 154.245 194.856 154.197 194.928C154.118 195.046 154.039 195.161 153.959 195.276C153.88 195.387 153.798 195.5 153.713 195.613C153.634 195.718 153.556 195.823 153.475 195.923C153.387 196.034 153.296 196.142 153.213 196.24C153.177 196.28 153.146 196.319 153.114 196.355C151.042 198.741 148.436 200.002 145.578 200.002C144.981 200.002 144.371 199.945 143.767 199.832C143.749 199.829 143.732 199.822 143.714 199.819V199.822C142.519 199.534 141.635 199.097 141.171 198.771C139.722 199.513 138.086 199.917 136.416 199.917C135.602 199.917 134.797 199.82 134.022 199.629H134.012L134.002 199.624C133.783 199.567 133.51 199.496 133.231 199.399C132.328 199.085 131.458 198.628 130.643 198.04C130.343 197.822 130.112 197.546 129.953 197.239C128.087 198.952 125.6 199.922 123.022 199.922C122.132 199.922 121.249 199.805 120.401 199.574H120.392L120.384 199.569C118.672 199.085 117.112 198.149 115.871 196.863C115.799 196.789 115.734 196.711 115.676 196.63C113.762 198.714 110.999 199.938 108.138 199.938C107.484 199.938 106.828 199.874 106.188 199.747C103.301 199.168 100.872 197.41 99.4313 194.923C97.6353 198.002 94.3228 199.935 90.6973 199.935C90.2923 199.935 89.8822 199.91 89.4771 199.864L89.4487 199.86L89.4202 199.855C87.8217 199.609 86.2985 199.014 85.0164 198.13C84.618 197.857 84.2381 197.553 83.8799 197.22C83.7226 197.523 83.4932 197.796 83.197 198.009C81.4763 199.25 79.374 199.933 77.2767 199.933C77.0976 199.933 76.9168 199.928 76.7377 199.918H76.7026L76.6792 199.913L76.6457 199.91C75.151 199.777 73.7048 199.333 72.4344 198.633C71.5757 199.213 70.7388 199.601 69.4667 199.785C69.4299 199.79 69.3964 199.794 69.3629 199.799C68.8323 199.885 68.3252 199.932 67.828 199.932H67.8029H67.7343C65.0311 199.907 63.2635 198.939 61.6048 196.818C59.4523 194.058 58.9652 191.531 59.002 188.768V187.603C59.002 179.853 59.2514 171.537 59.3016 162.651L59.3033 162.652Z" fill="#3B2D55"/>
<path d="M59.3033 162.652C59.3937 171.527 59.864 180.133 59.8657 187.605C59.8071 186.414 59.3937 171.529 59.3033 162.652Z" fill="#57D1E5"/>
<path d="M59.2899 96.3297C59.2899 80.1055 65.7709 65.4582 77.5378 55.0845C89.3031 44.7125 105.896 39 124.257 39C142.604 39 159.156 44.7125 170.863 55.0829C182.558 65.4432 188.999 80.0922 188.999 96.3297C188.999 118.767 177.469 147.115 166.796 168.55C161.871 178.439 157.129 186.858 153.787 192.544L153.31 193.358C151.408 196.64 148.645 198.426 145.573 198.426C145.074 198.426 144.567 198.378 144.055 198.283C143.799 198.235 143.59 198.05 143.515 197.802C143.438 197.555 143.508 197.285 143.694 197.104L143.757 197.046C144.5 196.285 145.059 195.545 145.488 194.745C145.553 194.64 145.612 194.512 145.672 194.377C145.711 194.292 145.749 194.209 145.784 194.139C145.885 193.925 145.988 193.705 146.06 193.516L148.529 187.504L152.389 177.842L154.277 172.998L156.117 168.125C156.174 167.976 156.097 167.808 155.946 167.751C155.802 167.7 155.641 167.764 155.578 167.902L153.393 172.625L151.259 177.37L147.07 186.896L144.512 192.869C144.433 193.061 144.36 193.21 144.289 193.356L144.238 193.462C144.212 193.511 144.189 193.561 144.167 193.609C144.114 193.724 144.055 193.852 143.968 193.985C143.613 194.61 143.156 195.214 142.557 195.836C140.482 197.924 137.281 198.816 134.397 198.104C134.18 198.047 133.96 197.989 133.744 197.914C132.99 197.651 132.256 197.265 131.567 196.768C131.256 196.542 131.185 196.107 131.413 195.796C131.706 195.395 131.955 194.988 132.173 194.555C132.37 194.199 132.521 193.815 132.68 193.407L134.817 187.336L138.076 177.749C139.201 174.355 140.21 171.289 141.191 168.119C141.238 167.964 141.151 167.803 140.997 167.756C140.853 167.714 140.697 167.786 140.639 167.924C139.367 171.017 138.15 174.142 136.91 177.335L133.319 186.808L131.12 192.764L131.046 192.94C130.932 193.22 130.814 193.506 130.648 193.787C130.529 194.031 130.39 194.243 130.253 194.447C130.193 194.537 130.132 194.629 130.075 194.722C130.059 194.75 130.039 194.777 130.019 194.802C129.953 194.881 129.89 194.963 129.826 195.044C129.67 195.244 129.496 195.469 129.312 195.642C127.166 197.929 123.832 198.877 120.808 198.054C119.365 197.646 118.051 196.856 117.005 195.771C116.785 195.543 116.747 195.199 116.913 194.93C117.05 194.703 117.182 194.475 117.308 194.243C117.361 194.119 117.418 193.996 117.473 193.872C117.607 193.58 117.733 193.306 117.818 193.015L118.029 192.371L118.598 190.413C118.913 189.325 119.238 188.201 119.537 187.086C120.307 184.305 121.095 181.3 122.021 177.626C122.809 174.555 123.563 171.353 124.261 168.11C124.282 168.007 124.244 167.929 124.22 167.891C124.195 167.853 124.14 167.786 124.036 167.764C123.894 167.733 123.745 167.814 123.698 167.954C122.61 171.086 121.591 174.217 120.665 177.261C119.546 180.89 118.658 183.871 117.87 186.649C117.542 187.773 117.231 188.924 116.928 190.037L116.569 191.355L116.268 192.436C116.203 192.712 116.101 192.955 116.01 193.168C115.967 193.269 115.923 193.371 115.885 193.476C115.875 193.502 115.863 193.531 115.851 193.556C115.577 194.093 115.267 194.599 114.919 195.074C112.937 197.603 109.63 198.826 106.495 198.202C103.584 197.618 101.227 195.615 100.185 192.835C100.174 192.815 100.163 192.794 100.158 192.779C100.146 192.754 100.134 192.729 100.118 192.697C100.108 192.679 100.097 192.661 100.074 192.624C100.064 192.607 100.052 192.589 100.044 192.571C100.01 192.516 99.9853 192.458 99.9669 192.396C99.7092 191.468 99.6154 190.46 99.684 189.437C99.6874 189.161 99.7309 188.918 99.7694 188.705C99.7828 188.625 99.7979 188.547 99.8046 188.505C99.8213 188.31 99.8832 188.098 99.9452 187.886L100.673 185.24C101.41 182.515 102.131 179.649 102.819 176.721C103.42 174.151 104.103 171.155 104.618 168.129C104.637 168.024 104.595 167.946 104.568 167.909C104.541 167.873 104.481 167.808 104.376 167.789C104.233 167.761 104.096 167.846 104.048 167.979C102.995 170.869 102.103 173.826 101.348 176.371C100.489 179.283 99.6941 182.144 98.9844 184.875L98.2914 187.59C98.2546 187.742 98.2195 187.873 98.1994 188.061L98.1676 188.286C98.1174 188.638 98.0688 188.969 98.0705 189.305C98.0203 190.448 98.1826 191.633 98.5425 192.73C98.5944 192.892 98.586 193.066 98.5191 193.221C97.0076 196.703 93.4541 198.744 89.6596 198.297C88.2971 198.087 87.0016 197.581 85.9169 196.833C84.8273 196.087 83.9017 195.058 83.2388 193.857C82.6229 192.747 82.2714 191.415 82.2228 190.046C82.1961 189.793 82.2145 189.565 82.2295 189.363C82.2379 189.265 82.2446 189.167 82.2463 189.066C82.2463 189.047 82.2463 189.026 82.2496 189.007C82.2697 188.781 82.3065 188.528 82.3433 188.274C82.3618 188.147 82.3802 188.021 82.3969 187.891L82.7066 185.687C83.0078 183.628 83.2757 181.527 83.5351 179.492C83.6456 178.624 83.756 177.755 83.8699 176.897C84.1896 174.189 84.5511 171.12 84.8206 168.074C84.8357 167.914 84.7151 167.771 84.5545 167.758C84.4088 167.741 84.2716 167.844 84.2414 167.989C83.6506 170.779 83.1518 173.48 82.5643 176.712C82.4187 177.579 82.2697 178.443 82.1207 179.308C81.7726 181.332 81.411 183.426 81.0947 185.492L80.7465 187.683C80.7264 187.82 80.7047 187.953 80.6829 188.083C80.6461 188.305 80.6093 188.528 80.5842 188.741C80.5741 188.889 80.5624 189.037 80.549 189.185C80.5239 189.467 80.5005 189.733 80.5155 190.009C80.5256 191.657 80.939 193.264 81.7123 194.657C81.9132 195.018 82.1458 195.38 82.4203 195.761C82.6446 196.072 82.5743 196.505 82.263 196.73C80.6746 197.876 78.7413 198.446 76.8214 198.341C76.8097 198.341 76.798 198.34 76.7846 198.338C75.4004 198.213 74.0663 197.786 72.9215 197.096C71.7682 196.393 70.774 195.407 70.0408 194.239C69.3562 193.111 68.9328 191.786 68.8139 190.388C68.7989 190.149 68.7989 189.921 68.7989 189.681L68.988 185.995C69.1135 183.952 69.2039 181.871 69.2893 179.856C69.3295 178.91 69.3696 177.965 69.4148 177.029C69.5119 174.086 69.614 171.042 69.6324 168.047C69.6324 167.886 69.5019 167.754 69.3412 167.754H69.3395C69.1905 167.754 69.065 167.864 69.0466 168.011C68.68 170.967 68.3904 173.984 68.1092 176.902L68.1059 176.942C68.0272 177.89 67.9452 178.837 67.8632 179.785C67.6908 181.791 67.51 183.866 67.3711 185.908L67.125 189.24L67.12 189.413C67.1117 189.776 67.1016 190.15 67.12 190.493C67.2121 192.13 67.7142 193.734 68.5712 195.128C68.9813 195.78 69.4734 196.397 70.0308 196.962C70.2082 197.142 70.2752 197.403 70.2032 197.644C70.1329 197.886 69.9354 198.07 69.6876 198.127C69.0215 198.278 68.4122 198.351 67.8264 198.351H67.7527C65.4713 198.33 63.6669 196.823 62.6945 195.494C61.3537 193.662 60.6491 192.616 60.2825 191.064C59.9695 189.734 59.926 188.954 59.8774 187.938C59.8724 187.83 59.8674 187.718 59.8607 187.603C59.8607 180.131 59.3887 171.527 59.2983 162.651C59.2883 161.724 59.2816 160.794 59.2816 159.863C59.2782 129.527 59.2782 97.0866 59.2849 96.3297H59.2899Z" fill="#57D1E5"/>
<path d="M172.594 95.0372C175.478 79.6829 165.291 64.9126 149.841 62.0463C134.392 59.1801 119.53 69.3042 116.646 84.6585C113.762 100.013 123.949 114.783 139.397 117.649C154.846 120.516 169.708 110.391 172.592 95.0372" fill="#4D9BB6"/>
<path d="M142.64 115.819C127.191 112.952 117.006 98.1819 119.888 82.8277C122.772 67.4734 137.636 57.351 153.085 60.2155C168.534 63.0818 178.719 77.8521 175.835 93.2064C173.281 106.807 161.327 116.303 147.893 116.303C146.16 116.303 144.404 116.145 142.64 115.817" fill="url(#paint0_linear_246_68)"/>
<path d="M154.467 106.44C149.782 105.082 149.737 94.5738 152.845 91.977C154.887 90.2719 158.784 89.9792 158.896 88.6783C159.01 87.3774 155.222 86.4242 153.507 84.3947C150.894 81.3056 152.755 70.9635 157.606 70.4262C163.392 69.7857 171.413 77.3431 170.34 89.6631C169.266 101.983 160.056 108.058 154.467 106.438" fill="#3B2D55"/>
<path d="M166.084 51.5079C165.681 51.1503 165.271 50.7976 164.857 50.45C166.976 51.8706 168.983 53.416 170.865 55.0828C182.56 65.4416 188.999 80.0905 188.999 96.3297C188.999 129.119 164.374 174.538 153.787 192.544L153.31 193.358C152.65 194.495 151.885 195.45 151.042 196.215C163.895 173.444 186.031 129.487 186.031 96.8803C186.031 79.0175 178.946 62.9047 166.083 51.5096" fill="#93E1EF"/>
<path d="M136.225 125.167C126.807 122.562 118.381 116.646 112.932 108.585C111.14 105.925 109.566 103.119 108.329 100.149C107.896 99.1028 106.689 98.6038 105.638 99.0363C104.62 99.4555 104.123 100.597 104.488 101.615C106.84 108.314 111.218 114.254 116.677 118.789C122.086 123.324 128.666 126.488 135.596 127.82C137.308 128.113 137.897 125.666 136.227 125.165" fill="#4D9BB6"/>
<path d="M129.486 126.13C129.377 126.088 129.27 126.052 129.162 126.012C128.207 125.641 127.176 125.218 126.115 124.719C125.342 124.37 124.559 123.962 123.76 123.532C123.722 125.049 124.085 126.587 125.446 127.389C126.333 127.908 127.792 127.439 129.488 126.13H129.486ZM114.415 116.566C114.039 116.197 113.662 115.833 113.301 115.459C112.365 114.482 111.498 113.474 110.691 112.469C110.053 111.656 109.444 110.847 108.893 110.05C107.369 112.865 107.553 115.088 107.83 116.235C108.123 117.435 108.749 118.396 109.503 118.812C110.756 119.501 112.018 118.955 114.415 116.568V116.566Z" fill="#4D9BB6"/>
<path d="M130.703 126.11C130.594 126.068 130.487 126.032 130.378 125.992C129.424 125.621 128.393 125.198 127.332 124.699C126.559 124.35 125.775 123.942 124.977 123.511C124.939 125.029 125.302 126.567 126.663 127.369C127.55 127.888 129.009 127.419 130.705 126.11H130.703ZM115.63 116.548C115.254 116.179 114.877 115.814 114.516 115.44C113.58 114.464 112.713 113.455 111.906 112.451C111.269 111.637 110.659 110.829 110.109 110.032C108.584 112.847 108.768 115.069 109.046 116.217C109.339 117.416 109.965 118.378 110.718 118.794C111.972 119.482 113.234 118.937 115.63 116.55V116.548Z" fill="white"/>
<path d="M137.598 125.167C128.179 122.562 119.753 116.646 114.305 108.585C112.512 105.925 110.939 103.118 109.702 100.149C109.268 99.1027 108.061 98.6037 107.01 99.0362C105.993 99.4554 105.496 100.597 105.86 101.615C108.212 108.314 112.591 114.254 118.049 118.789C123.459 123.323 130.039 126.487 136.968 127.82C138.681 128.113 139.27 125.666 137.599 125.165" fill="#3B2D55"/>
<g clip-path="url(#clip1_246_68)">
<path d="M69.5933 123.634L69.6248 116.574L47.4695 116.551L47.4381 123.611L41.9493 123.606L41.9849 115.733C41.9866 114.477 42.4807 113.272 43.3596 112.386C44.2394 111.496 45.4311 110.998 46.6725 111L70.4342 111.026C71.6756 111.028 72.8666 111.527 73.743 112.417C74.6203 113.306 75.1119 114.511 75.111 115.767L75.0755 123.64L69.5933 123.634Z" fill="#3B2D55"/>
<path d="M103.395 123.671L13.6847 123.575C10.0332 123.57 7.06952 126.562 7.06539 130.257L7 181.207C6.99587 184.901 9.95293 187.899 13.6052 187.903L103.315 187.999C106.967 188.003 109.93 185.012 109.935 181.317L110.001 130.366C110.005 126.672 107.048 123.674 103.396 123.67L103.395 123.671Z" fill="url(#paint1_linear_246_68)"/>
<path d="M30.9749 123.587L23.1118 123.579L23.0429 187.908L30.9061 187.917L30.9749 123.587Z" fill="#B2362F"/>
<path d="M94.1815 123.665L86.3183 123.656L86.2495 187.985L94.1127 187.994L94.1815 123.665Z" fill="#B2362F"/>
</g>
</g>
<defs>
<linearGradient id="paint0_linear_246_68" x1="119.399" y1="88.0179" x2="176.322" y2="88.0179" gradientUnits="userSpaceOnUse">
<stop stop-color="white"/>
<stop offset="0.27" stop-color="white"/>
<stop offset="1" stop-color="#CECAD5"/>
</linearGradient>
<linearGradient id="paint1_linear_246_68" x1="58.5004" y1="186.293" x2="58.5004" y2="132.29" gradientUnits="userSpaceOnUse">
<stop stop-color="#FA9B20"/>
<stop offset="1" stop-color="#FAAF2F"/>
</linearGradient>
<clipPath id="clip0_246_68">
<rect width="200" height="200" fill="white"/>
</clipPath>
<clipPath id="clip1_246_68">
<rect width="103" height="77" fill="white" transform="translate(7 111)"/>
</clipPath>
</defs>
</svg>